<svg id="Layer_1" data-name="Layer 1" xmlns="http://www.w3.org/2000/svg" viewBox="0 0 1256.71 574.16"><defs><style>.cls-1,.cls-3{fill:#b3b3b3;}.cls-2{font-size:175.81px;}.cls-2,.cls-5{fill:#f05558;}.cls-2,.cls-4{font-family:TypoRoundBoldDemo, Typo Round Bold Demo;}.cls-3{font-family:ArialRoundedMTBold, Arial Rounded MT Bold;}</style></defs><title>Backers&amp;amp;Hackers</title><path class="cls-1" d="M1255.82,327c-.11-1.2-.28-2.36-.41-3.54,0-.45-.06-.91-.09-1.36l.24,0c-.53-2.91-1-5.84-1.61-8.74,0-.23-.11-.45-.16-.68q-10.46-54.58-61.73-82.18c-13.1-7-27.33-10.74-42.06-12.34a11.64,11.64,0,0,0-2.62,0q-5.7-.4-11.47-.33c-5.93.07-10.15,4.31-10.26,9.5-.1,5,3.89,8.94,9.69,9.46,4.35.39,8.74.47,13.09.91a97.71,97.71,0,0,1,86.89,79.87c.53,2.93.79,5.91,1.29,8.84.07.86.15,1.72.21,2.59.22,3.74,0,7.53.4,11.25.61,5.58,4.4,8.66,9.92,8.51,4.89-.13,8.18-3.38,8.73-8.65.15-1.4.19-2.81.28-4.22l.24,0C1256.19,333,1256.08,330,1255.82,327Z" transform="translate(-109.29 -125.53)"/><path class="cls-1" d="M1161.2,255.67a90.64,90.64,0,0,0-17.06-2.9,8.48,8.48,0,0,0-2.19.14c-2.58-.1-5.17-.1-7.73,0a9.17,9.17,0,0,0-8.52,9.53c.13,4.94,3.68,8.62,8.9,9.17,2.18.23,4.36.41,6.55.5,22.56.92,39.5,11.57,51.66,30.17.62,1,1.2,1.92,1.75,2.9.37.67.73,1.37,1.09,2.07a65.08,65.08,0,0,1,6.44,23.29s0,.08,0,.13q.25,3.59.17,7.25c-.13,6.17,3.46,10.33,8.86,10.7,6.41.43,9.84-3.67,10.14-12.15C1222.58,299.75,1197.28,265.58,1161.2,255.67Z" transform="translate(-109.29 -125.53)"/><path class="cls-1" d="M1151.56,289a48,48,0,0,0-12-1.6,10.27,10.27,0,0,0-1.94.19c-1.28,0-2.56.12-3.83.27-5.25.64-8.31,4.81-8.05,9.83s3.66,8.4,9.13,8.78c2.34.16,4.68.29,7,.5a28.17,28.17,0,0,1,25.4,25.34c0,.45.13.85.2,1.28,0,.64.05,1.29,0,1.94-.21,8.2,3.27,13.25,9.17,13.33s9.36-4.31,9.75-12.37c0-.16,0-.31,0-.47A46.88,46.88,0,0,0,1151.56,289Z" transform="translate(-109.29 -125.53)"/><path class="cls-1" d="M1136.88,326a11.45,11.45,0,1,0,12.1,11A11.23,11.23,0,0,0,1136.88,326Z" transform="translate(-109.29 -125.53)"/><text class="cls-2" transform="translate(360.32 224.15)">Backers<tspan class="cls-3"><tspan x="0" y="175.81">&amp;</tspan><tspan class="cls-4" x="133.57" y="175.81">Hackers</tspan></tspan></text><text x="-109.29" y="-125.53"></text><path class="cls-5" d="M436.25,445.72c-13.66-.43-27.35-.25-41-.05-9.32.13-17.17,7.17-18.31,15.85-1.48,11.31,3.72,20.24,13.79,22.83,3.42.88,7.16.67,10.76.7,9.83.08,9.71,0,9.81,9.79,0,3.16-.83,4.17-4.12,4.16q-84-.15-168,0c-3.13,0-3.9-.9-3.9-3.95q.13-83.8,0-167.61a5.46,5.46,0,0,1,2.77-5.1c8.78-6,17.73-11.78,26.09-18.3q17.66-13.78,34.5-28.59c5.54-4.87,8.15-11.45,7.6-19.17-.62-8.71-7.2-15.28-15.92-15.49-6.18-.15-11.68,2-16.95,4.89-11.18,6.08-22.31,12.26-33.47,18.38-1.28.7-2.63,1.26-4.13,2a10.37,10.37,0,0,1-.41-1.78c0-13.09,0-26.18-.06-39.27,0-2.05,1-2.68,2.77-2.68,1.05,0,2.1,0,3.16,0l163.75,0c1.05,0,2.1,0,3.16,0,2.2,0,3.06.94,3.06,3.2q-.08,36.64,0,73.28c0,2.58-1.1,3.08-3.38,3.09a115,115,0,0,0-14.66.56c-11.37,1.51-17.16,9.71-16.31,22.44.62,9.19,8.76,16.37,19,16.46,13.21.11,26.42-.11,39.62.06,15.31.21,23.55-15.69,17.09-29-4.1-8.48-11.79-10.64-20.52-10.52-5.11.07-5.12,0-5.12-5.16q0-42.78,0-85.56a32.11,32.11,0,0,0-.58-7.64c-2.91-11.68-12-18.68-24.7-18.71q-78.37-.15-156.74,0c-7.88,0-14.81,2.62-20.07,9-4.75,5.74-5.36,12.42-5.33,19.44.08,19.52,0,39,0,58.56,0,2.22-.29,4-2.54,5.24-22,12.37-43.74,25.15-65.91,37.16a70.09,70.09,0,0,0-27.34,25.9c-8.1,13.43-12,28.2-13.55,43.72-1.86,18.53-1.12,36.77,5,54.57,10.65,31.08,37.78,49,68.78,52.19,10.3,1.06,20.76.77,31.14.68,3.75,0,4.53,1.29,4.48,4.63-.11,8.29-.17,16.6.17,24.89a23.07,23.07,0,0,0,17.91,21.56l5,1.22H404a10.67,10.67,0,0,1,2.22-.86c12.36-1.85,20.53-11,20.7-23.44.12-8.53,0-17.06,0-25.6s0-8.49,8.53-8.56c11.17-.1,19.47-8.22,19.32-19.61C454.63,453.78,447.24,446.06,436.25,445.72ZM297.94,201.79a73.53,73.53,0,0,1,9.79-.16h38.19c1.05,0,2.28-.31,3.11.13,1.2.63,2.83,1.74,2.93,2.78s-1.21,2.59-2.3,3.3-2.46.54-3.73.55c-7.59,0-15.18,0-22.77,0s-14.95,0-22.42,0c-1.16,0-2.57.22-3.42-.34-1.2-.79-3-2.44-2.74-3.28A4.91,4.91,0,0,1,297.94,201.79Zm25,330.06a12.54,12.54,0,1,1,.48-25.08,12.54,12.54,0,0,1-.48,25.08Z" transform="translate(-109.29 -125.53)"/><path class="cls-5" d="M415.42,437.33c-6.42,0-12.84,0-19.25,0-9.92-.08-18.21-7-19.26-16-1.36-11.61,3.87-20.18,14.11-23a17.43,17.43,0,0,1,4.47-.51c13.42,0,26.84-.07,40.26,0,10.9.05,19.16,8.28,19,19.48-.14,12.33-8.39,19.65-19.06,19.93C429,437.47,422.19,437.33,415.42,437.33Z" transform="translate(-109.29 -125.53)"/><path class="cls-5" d="M415.43,389.62c-7.69,0-15.43-.15-23.08-.74-8.49-.65-15.26-8.69-15.49-17.22-.29-11.15,4.4-18.43,13.62-21a17.31,17.31,0,0,1,4.48-.57c13.79,0,27.58-.16,41.37,0a18.09,18.09,0,0,1,17.78,14.09c2.17,10.36-1.65,19.51-10.29,23.24a31.25,31.25,0,0,1-10.52,2.05c-5.94.32-11.92.09-17.88.09Z" transform="translate(-109.29 -125.53)"/></svg>